<svg width="55" height="53" viewBox="0 0 55 53" fill="none" xmlns="http://www.w3.org/2000/svg">
<path fill-rule="evenodd" clip-rule="evenodd" d="M26.8567 49.2208C35.9512 53.7128 44.9785 53.896 50.1263 48.824C55.1106 43.913 55.2226 35.2922 51.2699 26.4346C55.0441 18.5345 55.2414 10.7656 50.9938 5.84832C46.4189 0.552188 37.8217 -0.123253 28.7225 3.24305C19.7291 -1.1068 10.8422 -1.23132 5.7506 3.78531C1.07189 8.39515 0.686344 16.2738 3.92588 24.5487C-0.836941 33.1327 -1.46762 41.8387 3.14632 47.18C7.9618 52.7546 17.2337 53.2098 26.8567 49.2208ZM26.8567 49.2208C31.2005 47.4201 35.6158 44.7139 39.7251 41.1642C44.9078 36.6872 48.8339 31.5336 51.2699 26.4346C49.1829 21.7579 45.9628 17.0152 41.7285 12.7176C37.6667 8.59514 33.1815 5.39975 28.7225 3.24305C23.9207 5.01952 18.9791 7.92156 14.415 11.8641C9.92474 15.7429 6.37777 20.1296 3.92588 24.5487C5.95969 29.7438 9.42229 35.095 14.1484 39.8917C18.1198 43.9225 22.496 47.0669 26.8567 49.2208Z" fill="#FFC87F"/>
<path fill-rule="evenodd" clip-rule="evenodd" d="M51.344 26.1916C48.908 31.2905 44.9819 36.4442 39.7992 40.9212C35.6899 44.4708 31.2746 47.1771 26.9308 48.9777C22.5701 46.8239 18.1939 43.6794 14.2225 39.6487C9.4964 34.852 6.0338 29.5007 3.99999 24.3056C6.45188 19.8866 9.99886 15.4998 14.4891 11.621C19.0532 7.67851 23.9948 4.77647 28.7966 3C33.2556 5.1567 37.7408 8.35209 41.8026 12.4746C46.0369 16.7721 49.257 21.5149 51.344 26.1916Z" fill="#FF9100"/>
<rect x="19" y="20" width="17" height="13" rx="2" stroke="white" stroke-width="2"/>
<line x1="20" y1="24.5" x2="35" y2="24.5" stroke="white" stroke-width="3"/>
</svg>
