<svg width="232" height="169" viewBox="0 0 232 169" fill="none" xmlns="http://www.w3.org/2000/svg">
<g id="undraw_city_driver_re_0x5e 2" clip-path="url(#clip0_55_87)">
<path id="Vector" d="M228.092 118.806C224.035 127.185 217.01 133.595 208.973 138.473C205.677 140.457 202.25 142.214 198.714 143.731C196.401 144.733 194.057 145.648 191.681 146.475C179.895 150.594 167.424 152.607 154.932 152.614C152.89 152.616 150.849 152.563 148.807 152.456C148.222 152.426 147.636 152.392 147.05 152.353C143.964 152.148 140.888 151.82 137.822 151.368C137.762 151.359 137.7 151.35 137.639 151.34C131.227 150.392 124.904 148.909 118.738 146.906C117.543 146.518 116.355 146.11 115.174 145.684C114.856 145.571 114.537 145.453 114.22 145.336C112.889 144.843 111.569 144.325 110.258 143.782C109.155 143.328 108.059 142.855 106.97 142.366C105.897 141.881 104.832 141.38 103.774 140.864C102.042 140.014 100.33 139.124 98.6355 138.193C97.3284 137.469 96.0385 136.717 94.7658 135.938C91.6095 134.009 88.5553 131.916 85.6156 129.67C84.5777 128.877 83.554 128.063 82.5448 127.23C81.8449 126.652 81.1514 126.062 80.4472 125.488C78.9614 124.279 77.4324 123.13 75.7268 122.27C75.2122 122.01 74.6846 121.777 74.1462 121.572C72.1337 120.826 70.0136 120.414 67.8687 120.349C64.21 120.205 60.4328 120.886 56.8946 121.895C55.2128 122.371 53.5503 122.919 51.8877 123.479C51.2051 123.71 50.5232 123.941 49.8419 124.173C48.4336 124.654 47.0253 125.124 45.6039 125.553C45.1301 125.695 44.6564 125.835 44.1804 125.967C42.2803 126.514 40.3438 126.926 38.3855 127.2C34.0121 127.756 29.5703 127.369 25.359 126.064L24.9994 125.952C24.3965 125.762 23.7999 125.555 23.2055 125.329L22.8459 125.191C22.2732 124.969 21.7111 124.731 21.1597 124.477L20.8001 124.314C20.2704 124.066 19.7513 123.807 19.241 123.533C19.1979 123.512 19.157 123.49 19.1139 123.466C18.9158 123.363 18.7199 123.251 18.526 123.145C15.3994 121.394 12.5561 119.178 10.0931 116.573C10.022 116.502 9.9552 116.429 9.87771 116.357C9.53523 115.987 9.19928 115.609 8.87415 115.224C8.75354 115.081 8.63293 114.939 8.51454 114.793C8.12905 114.32 7.75651 113.838 7.39689 113.346C7.34306 113.275 7.29132 113.202 7.23969 113.131C5.76907 111.093 4.54928 108.886 3.60674 106.556C3.57656 106.485 3.54859 106.412 3.52272 106.341C3.2363 105.601 2.9743 104.849 2.73672 104.084C2.63978 103.765 2.54724 103.437 2.46533 103.118C2.43736 103.023 2.41149 102.926 2.38783 102.831C1.20994 98.1496 1.08282 93.2802 1.08282 88.4389V86.7468C1.11731 78.9157 1.23792 70.951 2.39216 63.2277C2.39674 63.1741 2.40464 63.1209 2.41582 63.0682C2.80347 60.4684 3.32894 57.8911 3.99002 55.3471C4.68425 52.6784 5.5702 50.0634 6.64096 47.5225C9.29622 41.2714 13.1575 35.583 17.445 30.3105C28.2339 17.0518 42.3974 5.90552 58.9749 1.74749C76.838 -2.7425 96.691 1.55995 111.1 13.0425C115.349 16.4267 119.18 20.4144 123.889 23.1002C124.049 23.1929 124.21 23.2835 124.374 23.3718C124.996 23.7102 125.632 24.0178 126.282 24.2944C127.143 24.6625 128.029 24.9686 128.933 25.2105C131.795 25.98 134.786 26.049 137.639 25.0941C137.872 25.0144 138.105 24.9303 138.335 24.8376C138.824 24.6436 139.291 24.4625 139.741 24.2944C142.812 23.1498 145.177 22.5937 148.909 22.7942C157.771 23.294 166.509 25.1243 174.828 28.224C175.164 28.3468 175.5 28.474 175.834 28.6012C197.521 36.9108 216.168 53.4114 225.855 74.6154C226.113 75.1759 226.362 75.7406 226.602 76.3097C232.38 89.8077 234.464 105.644 228.092 118.806Z" fill="#F2F2F2"/>
<path id="Vector_2" d="M13.6979 110.497V110.583L13.6656 110.622L13.6979 110.497Z" fill="#CACACA"/>
<path id="Vector_3" d="M51.8877 123.479C51.2051 123.71 50.5232 123.941 49.8419 124.173V123.479H51.8877Z" fill="white"/>
<path id="Vector_4" d="M128.933 12.6676H123.889V25.2893H128.933V12.6676Z" fill="#E4E4E4"/>
<path id="Vector_5" d="M137.639 24.2944V151.34C131.227 150.392 124.904 148.909 118.738 146.906C117.543 146.518 116.355 146.11 115.174 145.684C114.856 145.571 114.537 145.453 114.22 145.336C112.889 144.843 111.569 144.325 110.258 143.782C109.155 143.328 108.059 142.855 106.97 142.366C105.897 141.881 104.832 141.38 103.774 140.864C102.042 140.014 100.33 139.124 98.6355 138.193C97.3284 137.469 96.0385 136.717 94.7657 135.938V24.2944H137.639Z" fill="#E4E4E4"/>
<path id="Vector_6" d="M154.932 24.2944V152.614C152.89 152.616 150.849 152.563 148.807 152.456C148.222 152.426 147.636 152.392 147.05 152.353C143.964 152.148 140.888 151.82 137.822 151.368C137.762 151.359 137.7 151.35 137.639 151.34V24.2944H154.932Z" fill="#CACACA"/>
<path id="Vector_7" d="M108.997 36.9158H102.512V43.4069H108.997V36.9158Z" fill="white"/>
<path id="Vector_8" d="M119.445 36.9158H112.96V43.4069H119.445V36.9158Z" fill="white"/>
<path id="Vector_9" d="M129.893 36.9158H123.408V43.4069H129.893V36.9158Z" fill="white"/>
<path id="Vector_10" d="M109.177 51.7012H102.692V58.1923H109.177V51.7012Z" fill="white"/>
<path id="Vector_11" d="M119.625 51.7012H113.14V58.1923H119.625V51.7012Z" fill="white"/>
<path id="Vector_12" d="M130.073 51.7012H123.588V58.1923H130.073V51.7012Z" fill="white"/>
<path id="Vector_13" d="M109.357 66.4866H102.872V72.9777H109.357V66.4866Z" fill="white"/>
<path id="Vector_14" d="M119.805 66.4866H113.32V72.9777H119.805V66.4866Z" fill="white"/>
<path id="Vector_15" d="M130.253 66.4866H123.768V72.9777H130.253V66.4866Z" fill="white"/>
<path id="Vector_16" d="M109.537 81.272H103.052V87.7631H109.537V81.272Z" fill="white"/>
<path id="Vector_17" d="M119.985 81.272H113.5V87.7631H119.985V81.272Z" fill="white"/>
<path id="Vector_18" d="M130.433 81.272H123.948V87.7631H130.433V81.272Z" fill="white"/>
<path id="Vector_19" d="M109.718 96.0574H103.233V102.549H109.718V96.0574Z" fill="white"/>
<path id="Vector_20" d="M120.166 96.0574H113.681V102.549H120.166V96.0574Z" fill="white"/>
<path id="Vector_21" d="M130.614 96.0574H124.129V102.549H130.614V96.0574Z" fill="white"/>
<path id="Vector_22" d="M109.898 110.843H103.413V117.334H109.898V110.843Z" fill="white"/>
<path id="Vector_23" d="M120.346 110.843H113.861V117.334H120.346V110.843Z" fill="white"/>
<path id="Vector_24" d="M130.794 110.843H124.309V117.334H130.794V110.843Z" fill="white"/>
<path id="Vector_25" d="M110.078 125.628H103.593V132.119H110.078V125.628Z" fill="white"/>
<path id="Vector_26" d="M120.526 125.628H114.041V132.119H120.526V125.628Z" fill="white"/>
<path id="Vector_27" d="M130.974 125.628H124.489V132.119H130.974V125.628Z" fill="white"/>
<path id="Vector_28" d="M110.258 140.413V143.782C109.155 143.327 108.059 142.855 106.97 142.366C105.897 141.881 104.832 141.38 103.774 140.864V140.413H110.258Z" fill="white"/>
<path id="Vector_29" d="M120.707 140.413V146.906H118.738C117.543 146.518 116.355 146.11 115.174 145.684C114.856 145.571 114.537 145.453 114.22 145.336V140.413L120.707 140.413Z" fill="white"/>
<path id="Vector_30" d="M131.154 140.414H124.669V146.905H131.154V140.414Z" fill="white"/>
<path id="Vector_31" d="M187.717 76.9446H182.673V84.4252H187.717V76.9446Z" fill="#E4E4E4"/>
<path id="Vector_32" d="M191.681 83.783V146.475C179.895 150.594 167.424 152.607 154.932 152.614C152.89 152.616 150.849 152.563 148.807 152.456V83.783H191.681Z" fill="#E4E4E4"/>
<path id="Vector_33" d="M208.973 83.783V138.473C205.677 140.457 202.249 142.214 198.714 143.731C196.401 144.733 194.057 145.648 191.681 146.475V83.783H208.973Z" fill="#CACACA"/>
<path id="Vector_34" d="M163.759 96.0574H157.274V102.549H163.759V96.0574Z" fill="white"/>
<path id="Vector_35" d="M174.207 96.0574H167.722V102.549H174.207V96.0574Z" fill="white"/>
<path id="Vector_36" d="M184.655 96.0574H178.17V102.549H184.655V96.0574Z" fill="white"/>
<path id="Vector_37" d="M163.939 110.843H157.454V117.334H163.939V110.843Z" fill="white"/>
<path id="Vector_38" d="M174.387 110.843H167.902V117.334H174.387V110.843Z" fill="white"/>
<path id="Vector_39" d="M184.835 110.843H178.35V117.334H184.835V110.843Z" fill="white"/>
<path id="Vector_40" d="M164.119 125.628H157.634V132.119H164.119V125.628Z" fill="white"/>
<path id="Vector_41" d="M174.567 125.628H168.082V132.119H174.567V125.628Z" fill="white"/>
<path id="Vector_42" d="M185.015 125.628H178.53V132.119H185.015V125.628Z" fill="white"/>
<path id="Vector_43" d="M164.299 140.414H157.814V146.905H164.299V140.414Z" fill="white"/>
<path id="Vector_44" d="M174.747 140.414H168.262V146.905H174.747V140.414Z" fill="white"/>
<path id="Vector_45" d="M185.195 140.414H178.71V146.905H185.195V140.414Z" fill="white"/>
<path id="Vector_46" d="M153.882 154.591C153.882 154.591 156.189 162.803 165.851 162.43C175.512 162.057 179.689 154.442 179.689 154.442L153.882 154.591Z" fill="#3F3D56"/>
<path id="Vector_47" d="M20.7447 122.563L17.9844 127.623L18.4325 137.121L84.5782 156.794L113.382 160.34L107.751 125.956L88.0455 122.464L58.4855 123.309L33.4244 118.68L20.7447 122.563Z" fill="#2F2E41"/>
<path id="Vector_48" d="M18.4325 137.121C18.4325 137.121 16.4932 128.461 19.4021 122.563L22.3339 115.47L33.4127 125.773L35.9425 141.894L79.2954 148.469C79.2954 148.469 76.6102 122.04 93.4669 120.995C110.323 119.95 118.322 148.469 118.322 148.469L126.733 154.591L185.358 150.261C185.358 150.261 186.393 153.098 184.906 154.591C183.419 156.084 112.263 160.713 112.263 160.713C112.263 160.713 108.683 125.325 94.5111 128.61C80.3396 131.895 84.5781 156.794 84.5781 156.794L33.9465 147.872C33.9465 147.872 32.3056 123.832 23.9519 123.832C15.5982 123.832 18.4325 137.121 18.4325 137.121Z" fill="#3F3D56"/>
<path id="Vector_49" d="M28.4229 107.013L37.9743 92.0274L78.6988 89.6384L123.898 90.2357L144.932 109.796L79.892 113.529L27.532 110.692L28.4229 107.013Z" fill="#3F3D56"/>
<g id="Vector_50">
<path d="M28.423 107.013C28.423 107.013 20.2971 107.183 19.4021 122.563C19.4021 122.563 28.0542 106.884 35.5129 141.824L80.0412 149.066C80.0412 149.066 78.4003 119.95 95.2569 122.189C112.114 124.429 116.141 151.157 116.141 151.157C116.141 151.157 119.423 157.727 137.473 156.681C155.523 155.636 182.524 153.994 185.358 150.261C185.358 150.261 191.921 128.013 171.485 113.678L144.932 109.796L84.8148 110.991L28.423 107.013Z" fill="#6C63FF"/>
<path d="M28.423 107.013C28.423 107.013 20.2971 107.183 19.4021 122.563C19.4021 122.563 28.0542 106.884 35.5129 141.824L80.0412 149.066C80.0412 149.066 78.4003 119.95 95.2569 122.189C112.114 124.429 116.141 151.157 116.141 151.157C116.141 151.157 119.423 157.727 137.473 156.681C155.523 155.636 182.524 153.994 185.358 150.261C185.358 150.261 191.921 128.013 171.485 113.678L144.932 109.796L84.8148 110.991L28.423 107.013Z" fill="#DAF297"/>
</g>
<path id="Vector_51" d="M48.7893 117.486H43.7174C43.58 117.486 43.4438 117.46 43.3166 117.408C43.1895 117.355 43.0739 117.278 42.9765 117.181C42.8791 117.084 42.8018 116.969 42.7491 116.842C42.6964 116.715 42.6693 116.578 42.6693 116.441C42.6693 116.303 42.6964 116.167 42.7491 116.04C42.8018 115.913 42.8791 115.797 42.9765 115.7C43.0739 115.603 43.1895 115.526 43.3166 115.474C43.4438 115.422 43.58 115.395 43.7174 115.396H48.7893C49.0656 115.397 49.3302 115.507 49.5252 115.703C49.7201 115.899 49.8296 116.164 49.8296 116.441C49.8296 116.717 49.7201 116.982 49.5252 117.178C49.3302 117.374 49.0656 117.485 48.7893 117.486V117.486Z" fill="#CACACA"/>
<path id="Vector_52" d="M125.987 149.962C127.799 149.962 129.269 148.491 129.269 146.677C129.269 144.863 127.799 143.392 125.987 143.392C124.174 143.392 122.705 144.863 122.705 146.677C122.705 148.491 124.174 149.962 125.987 149.962Z" fill="white"/>
<path id="Vector_53" d="M124.361 130.559C122.114 130.559 119.431 129.598 117.03 127.747C112.794 124.48 111.014 119.656 113.063 116.994C115.111 114.332 120.225 114.824 124.462 118.091C126.51 119.67 128.051 121.654 128.803 123.678C129.559 125.714 129.427 127.549 128.43 128.844C127.542 129.997 126.079 130.559 124.361 130.559Z" fill="white"/>
<path id="Vector_54" d="M182.68 126.388C181.027 126.388 178.057 124.712 175.118 121.993C173.356 120.363 171.896 118.617 171.007 117.074C170.104 115.508 169.899 114.329 170.428 113.756C170.957 113.182 172.147 113.295 173.779 114.071C175.385 114.836 177.24 116.155 179.002 117.785C182.721 121.224 184.781 124.843 183.692 126.023C183.558 126.151 183.399 126.25 183.225 126.313C183.05 126.376 182.865 126.401 182.68 126.388V126.388Z" fill="white"/>
<path id="Vector_55" d="M44.0442 107.01C44.0087 107.01 43.9731 107.009 43.9372 107.005L33.1506 106.002C32.9538 105.983 32.7649 105.915 32.6019 105.803C32.4389 105.691 32.3071 105.539 32.2191 105.362C32.1311 105.185 32.0897 104.988 32.099 104.791C32.1083 104.593 32.1678 104.401 32.272 104.233L38.3546 94.4169C38.4541 94.2562 38.5912 94.1223 38.7542 94.0268C38.9171 93.9313 39.1009 93.877 39.2895 93.8687L47.3347 93.5135C47.5197 93.5053 47.7039 93.5416 47.872 93.6192C48.0402 93.6969 48.1873 93.8137 48.3011 93.9598C48.4149 94.106 48.4921 94.2773 48.5263 94.4595C48.5604 94.6416 48.5505 94.8293 48.4975 95.0068L45.1563 106.182C45.0841 106.421 44.9371 106.631 44.7368 106.78C44.5366 106.929 44.2938 107.01 44.0442 107.01Z" fill="white"/>
<path id="Vector_56" d="M72.4687 109.31C72.3623 109.31 72.2552 109.305 72.1472 109.294L53.4993 107.457C53.028 107.411 52.5725 107.262 52.1645 107.021C51.7566 106.78 51.406 106.453 51.1373 106.063C50.8686 105.672 50.6883 105.228 50.6088 104.761C50.5293 104.293 50.5527 103.814 50.6772 103.357L53.3599 93.5041C53.5404 92.8318 53.9323 92.2355 54.4774 91.8034C55.0226 91.3712 55.6923 91.126 56.3874 91.1041L71.4371 90.5781C72.2536 90.5537 73.0498 90.8358 73.6692 91.369C74.2886 91.9021 74.6864 92.6478 74.7846 93.4596L76.0265 104.183C76.068 104.541 76.05 104.903 75.973 105.254L75.6466 106.748C75.4878 107.473 75.0863 108.123 74.5083 108.589C73.9304 109.055 73.2108 109.309 72.4687 109.31Z" fill="white"/>
<path id="Vector_57" d="M87.0226 109.829C86.4768 109.827 85.9475 109.641 85.5203 109.301C85.0931 108.961 84.7929 108.487 84.6681 107.955L81.3783 93.7221C81.2964 93.3675 81.2954 92.999 81.3756 92.644C81.4557 92.289 81.6148 91.9566 81.8411 91.6717C82.0674 91.3869 82.355 91.1568 82.6825 90.9986C83.01 90.8404 83.3689 90.7583 83.7325 90.7583H122.743C123.067 90.759 123.387 90.8244 123.685 90.9505C123.983 91.0767 124.252 91.2611 124.478 91.493L137.22 104.643C137.547 104.981 137.769 105.407 137.858 105.869C137.947 106.331 137.9 106.809 137.721 107.245C137.543 107.68 137.241 108.054 136.854 108.321C136.466 108.587 136.01 108.735 135.539 108.745L87.0762 109.828C87.0583 109.829 87.0403 109.829 87.0226 109.829Z" fill="white"/>
<path id="Vector_58" d="M37.6412 92.55L37.9742 92.0275C37.9742 92.0275 39.9135 86.6521 66.6156 85.7562C93.3177 84.8603 118.23 85.3083 123.898 90.2357L77.8036 90.0864L38.8693 92.7741L37.6412 92.55Z" fill="#6C63FF"/>
<g id="s5backwheel">
<path id="Vector_59" d="M29.9525 155.86H28.245C26.5943 155.866 24.9765 155.399 23.5826 154.514C22.1888 153.628 21.0773 152.362 20.3796 150.865C17.7472 145.113 18.527 137.158 18.5385 137.045C19.135 130.17 22.8994 125.684 27.9063 125.888C33.4337 126.111 38.1471 145.248 38.345 146.062C38.6735 147.436 38.5871 148.876 38.0968 150.201C37.4867 151.869 36.3771 153.307 34.9194 154.32C33.4617 155.333 31.7271 155.871 29.9525 155.86Z" fill="#3F3D56"/>
<path id="Vector_60" d="M24.9961 130.85C22.1949 130.85 19.9242 135.529 19.9242 141.302C19.9242 147.074 22.1949 151.754 24.9961 151.754C27.7973 151.754 30.068 147.074 30.068 141.302C30.068 135.529 27.7973 130.85 24.9961 130.85ZM25.2199 133.089C25.8378 133.089 26.3387 134.293 26.3387 135.777C26.3387 137.262 25.8378 138.465 25.2199 138.465C24.602 138.465 24.1011 137.262 24.1011 135.777C24.1011 134.293 24.602 133.089 25.2199 133.089ZM25.8911 141.302C25.8911 141.797 25.5572 142.198 25.1453 142.198C24.7334 142.198 24.3994 141.797 24.3994 141.302C24.3994 140.807 24.7334 140.406 25.1453 140.406C25.5572 140.406 25.8911 140.807 25.8911 141.302V141.302ZM21.994 141.877C21.0348 141.951 20.2322 141.687 20.2014 141.287C20.1705 140.887 20.923 140.502 21.8822 140.428C22.8413 140.354 23.6439 140.618 23.6747 141.018C23.7056 141.418 22.9531 141.803 21.994 141.877L21.994 141.877ZM25.2199 149.514C24.602 149.514 24.1011 148.311 24.1011 146.827C24.1011 145.342 24.602 144.139 25.2199 144.139C25.8378 144.139 26.3387 145.342 26.3387 146.827C26.3387 148.311 25.8378 149.514 25.2199 149.514H25.2199ZM28.1101 141.877C27.1509 141.951 26.3484 141.687 26.3175 141.287C26.2866 140.887 27.0391 140.502 27.9983 140.428C28.9575 140.354 29.76 140.618 29.7909 141.018C29.8217 141.418 29.0692 141.803 28.1101 141.877L28.1101 141.877Z" fill="#E4E4E4"/>
</g>
<g id="s5frontwheel">
<path id="Vector_61" d="M99.583 169C99.2908 168.993 98.9996 168.965 98.7115 168.916C96.502 168.567 94.4137 167.675 92.634 166.319C90.8543 164.963 89.439 163.185 88.5154 161.146C87.823 159.639 87.157 158.096 86.5357 156.56C84.041 150.391 86.1324 139.606 89.5305 135.431C92.5297 131.747 95.5484 131.776 100.118 131.819C100.587 131.824 101.073 131.828 101.578 131.829C106.652 131.838 112.016 150.52 113.778 156.659C113.919 157.147 114.035 157.552 114.124 157.855C114.401 158.788 114.368 159.904 114.027 161.171C112.951 165.17 109.407 168.135 105.207 168.551C102.19 168.849 100.298 169 99.583 169Z" fill="#3F3D56"/>
<path id="Vector_62" d="M95.8537 137.868C91.4048 137.868 87.7983 143.851 87.7983 151.231C87.7983 158.612 91.4048 164.595 95.8537 164.595C100.303 164.595 103.909 158.612 103.909 151.231C103.909 143.851 100.303 137.868 95.8537 137.868ZM91.0412 152.234C89.742 152.335 88.6549 151.977 88.6131 151.435C88.5712 150.893 89.5906 150.372 90.8898 150.272C92.189 150.171 93.2762 150.529 93.318 151.071C93.3598 151.613 92.3405 152.134 91.0412 152.234ZM95.8584 162.43C95.0214 162.43 94.343 160.8 94.343 158.789C94.343 156.779 95.0214 155.149 95.8584 155.149C96.6954 155.149 97.3739 156.779 97.3739 158.789C97.3739 160.8 96.6954 162.43 95.8584 162.43V162.43ZM94.6603 151.306C94.6603 150.514 95.1946 149.873 95.8537 149.873C96.5127 149.873 97.0471 150.514 97.0471 151.306C97.0471 152.098 96.5127 152.739 95.8537 152.739C95.1946 152.739 94.6603 152.098 94.6603 151.306ZM95.8584 147.463C95.0214 147.463 94.343 145.833 94.343 143.823C94.343 141.812 95.0214 140.182 95.8584 140.182C96.6954 140.182 97.3739 141.812 97.3739 143.823C97.3739 145.833 96.6954 147.463 95.8584 147.463V147.463ZM100.967 151.936C99.6675 152.036 98.5803 151.678 98.5385 151.136C98.4967 150.594 99.5161 150.074 100.815 149.973C102.115 149.873 103.202 150.231 103.243 150.773C103.285 151.314 102.266 151.835 100.967 151.936Z" fill="#E4E4E4"/>
</g>
<path id="Vector_63" d="M67.6598 111.14L69.4499 115.321C69.4499 115.321 72.4334 116.515 74.3726 112.484L70.443 108.55L67.6598 111.14Z" fill="#CACACA"/>
<path id="Vector_64" d="M65.1985 112.111C61.9905 112.111 59.3807 110.369 59.3807 108.228C59.3807 106.088 61.9905 104.346 65.1985 104.346C68.4064 104.346 71.0162 106.088 71.0162 108.228C71.0162 110.369 68.4064 112.111 65.1985 112.111Z" fill="#CACACA"/>
<path id="Vector_65" d="M177.378 125.773L144.025 126.749C144.025 126.749 136.726 128.798 135.981 134.654C135.981 134.654 137.024 139.435 139.705 139.435C142.387 139.435 183.5 137.288 183.5 137.288C183.5 137.288 186.181 133.19 183.947 130.262C181.712 127.334 177.378 125.773 177.378 125.773Z" fill="#3F3D56"/>
<path id="Vector_66" d="M180.265 127.638L141.152 128.933L141.167 129.381L180.28 128.086L180.265 127.638Z" fill="#E4E4E4"/>
<path id="Vector_67" d="M181.688 129.058L139.149 130.987L139.169 131.434L181.708 129.505L181.688 129.058Z" fill="#E4E4E4"/>
<path id="Vector_68" d="M183.177 130.986L137.558 133.438L137.582 133.885L183.201 131.433L183.177 130.986Z" fill="#E4E4E4"/>
<g id="Group 142">
<path id="Path 2185" d="M24.7591 121.062C24.5769 120.828 24.4482 120.556 24.3821 120.267C24.3161 119.977 24.3142 119.677 24.3767 119.387C24.4392 119.097 24.5645 118.824 24.7438 118.587C24.923 118.351 25.152 118.156 25.4144 118.018L24.9906 113.396L27.7337 112.453L28.2406 118.989C28.4438 119.445 28.4725 119.961 28.3212 120.437C28.17 120.914 27.8494 121.318 27.4201 121.574C26.9908 121.83 26.4828 121.919 25.9922 121.824C25.5017 121.73 25.0627 121.459 24.7586 121.062L24.7591 121.062Z" fill="#FFB8B8"/>
<path id="Path 2186" d="M27.7038 94.5358C27.7038 94.5358 29.5862 90.5814 31.259 91.9714C32.9317 93.3615 28.9657 105.055 28.9657 105.055L28.3626 116.406L25.1836 116.088L24.2847 105.03L27.7038 94.5358Z" fill="#E6E6E6"/>
<path id="Path 2187" d="M2.4538 153.039L4.81361 154.951L13.3047 146.749L9.82194 143.928L2.4538 153.039Z" fill="#FFB8B8"/>
<path id="Path 2188" d="M2.47529 151.78L7.12272 155.545C7.90813 156.181 8.40879 157.104 8.51456 158.11C8.62034 159.116 8.32257 160.123 7.68675 160.909L7.60888 161.005L0 154.841L2.47529 151.78Z" fill="#2F2E41"/>
<path id="Path 2189" d="M35.2505 158.347H38.2866L39.7302 146.624H35.2499L35.2505 158.347Z" fill="#FFB8B8"/>
<path id="Path 2190" d="M34.4758 157.354H40.4552C41.4658 157.354 42.435 157.756 43.1496 158.471C43.8642 159.187 44.2657 160.157 44.2658 161.168V161.292H34.476L34.4758 157.354Z" fill="#2F2E41"/>
<path id="Path 2191" d="M40.5779 103.393C40.5779 103.393 46.2738 110.333 45.0356 117.274C43.7973 124.216 42.8067 129.421 42.8067 129.421L40.8265 145.038C40.8265 145.038 41.5695 149.291 40.5789 150.387C40.5789 150.387 42.0648 152.97 39.3406 153.962C36.6165 154.953 35.1456 153.62 35.1456 153.62C35.1456 153.62 33.1483 150.74 34.3866 149.997L34.9083 119.347L15.0699 145.285C15.0699 145.285 14.7054 148.44 12.1634 148.474L9.1263 150.739L5.65918 148.755L7.39273 146.525C7.39273 146.525 6.40213 144.046 8.63098 143.55L21.5089 126.694L24.7284 118.018C24.7284 118.018 26.4619 111.325 31.1673 108.598V105.697L40.5779 103.393Z" fill="#2F2E41"/>
<path id="Path 2192" d="M30.7958 91.3701C31.5456 90.4831 32.5952 89.9031 33.7447 89.7407C34.8941 89.5783 36.0631 89.8447 37.029 90.4892L37.2347 90.6266C39.4329 93.1184 40.9103 96.1632 41.5078 99.4331L42.4352 104.508L30.7956 107.032L28.0669 97.6123C27.7206 96.4167 27.804 95.1373 28.3025 93.9969C28.8011 92.8564 29.6832 91.927 30.7956 91.3703L30.7958 91.3701Z" fill="#E6E6E6"/>
<path id="Path 2193" d="M49.9189 122.141C49.5962 122.036 49.3005 121.86 49.0528 121.628C48.805 121.396 48.6112 121.112 48.4849 120.796C48.3586 120.481 48.3029 120.142 48.3218 119.802C48.3407 119.463 48.4337 119.132 48.5942 118.833L45.2365 114.72L47.236 112.068L51.8962 117.943C52.3808 118.246 52.7373 118.717 52.8984 119.266C53.0595 119.815 53.0138 120.404 52.7701 120.921C52.5264 121.438 52.1016 121.848 51.5761 122.073C51.0506 122.298 50.4609 122.322 49.9189 122.141H49.9189Z" fill="#FFB8B8"/>
<path id="Path 2194" d="M35.7486 95.0884C35.7486 95.0884 35.0057 90.1306 37.4822 90.3785C39.9587 90.6264 43.6735 104.26 43.6735 104.26L50.3601 115.415L47.1406 117.15L39.2158 107.235L35.7486 95.0884Z" fill="#E6E6E6"/>
<path id="Path 2195" d="M40.2838 87.8404H28.4909C28.2483 87.8401 28.0157 87.7435 27.8442 87.5718C27.6727 87.4001 27.5762 87.1673 27.5759 86.9245V81.8365C27.5759 80.0283 28.2936 78.2941 29.571 77.0155C30.8483 75.7369 32.5809 75.0186 34.3874 75.0186C36.1939 75.0186 37.9264 75.7369 39.2038 77.0155C40.4812 78.2941 41.1988 80.0283 41.1988 81.8365V81.8365V86.9245C41.1985 87.1673 41.102 87.4001 40.9305 87.5718C40.759 87.7435 40.5264 87.8401 40.2838 87.8404V87.8404Z" fill="#2F2E41"/>
<path id="Ellipse 430" d="M35.7871 87.7219C38.5452 87.7219 40.781 85.484 40.781 82.7233C40.781 79.9626 38.5452 77.7246 35.7871 77.7246C33.0291 77.7246 30.7932 79.9626 30.7932 82.7233C30.7932 85.484 33.0291 87.7219 35.7871 87.7219Z" fill="#FFB8B8"/>
<path id="Path 2196" d="M42.8102 82.3453H36.5253L36.4609 81.3089L36.1386 82.3453H35.171L35.0433 80.2913L34.4047 82.3453H32.5322V82.2435C32.5322 79.2697 34.6389 76.8502 37.2291 76.8502H38.1152C40.7045 76.8502 42.812 79.2697 42.812 82.2435L42.8102 82.3453Z" fill="#2F2E41"/>
<path id="Path 2197" d="M36.7856 88.7902C36.7088 88.7901 36.6322 88.7842 36.5563 88.7725L29.0757 87.6192V79.8202C29.0757 79.0235 29.3919 78.2595 29.9547 77.6961C30.5175 77.1328 31.2808 76.8163 32.0768 76.8163H37.3104L37.1071 77.0241C34.2707 79.9141 36.4076 84.6018 37.9338 87.139C38.0458 87.3214 38.0964 87.5349 38.0781 87.7482C38.0598 87.9614 37.9736 88.1632 37.8321 88.3237C37.7023 88.4731 37.5414 88.5923 37.3607 88.673C37.18 88.7537 36.9839 88.7939 36.786 88.7908L36.7856 88.7902Z" fill="#2F2E41"/>
</g>
</g>
<defs>
<clipPath id="clip0_55_87">
<rect width="232" height="169" fill="white"/>
</clipPath>
</defs>
</svg>
