<svg width="1114" height="594" viewBox="0 0 1114 594" fill="none" xmlns="http://www.w3.org/2000/svg">
<g id="undraw_vehicle_sale_a645 1">
<g id="s5backwheel">
<path id="Vector" d="M453.71 364.274C453.71 387.302 462.602 409.441 478.531 426.07C494.461 442.7 516.197 452.536 539.204 453.525C562.211 454.514 584.711 446.58 602.009 431.379C619.307 416.177 630.066 394.883 632.042 371.94C632.172 370.489 632.269 369.038 632.313 367.565V367.49C632.356 366.418 632.378 365.346 632.378 364.274C632.37 340.586 622.954 317.871 606.202 301.125C589.449 284.378 566.732 274.97 543.044 274.97C519.357 274.97 496.639 284.378 479.886 301.125C463.134 317.871 453.718 340.586 453.71 364.274V364.274Z" fill="#65617D"/>
<path id="Vector_2" opacity="0.2" d="M453.71 364.274C453.71 387.302 462.602 409.441 478.531 426.07C494.461 442.7 516.197 452.536 539.204 453.525C562.211 454.514 584.711 446.58 602.009 431.379C619.307 416.177 630.066 394.883 632.042 371.94C632.172 370.489 632.269 369.038 632.313 367.565V367.49C632.356 366.418 632.378 365.346 632.378 364.274C632.37 340.586 622.954 317.871 606.202 301.125C589.449 284.378 566.732 274.97 543.044 274.97C519.357 274.97 496.639 284.378 479.886 301.125C463.134 317.871 453.718 340.586 453.71 364.274V364.274Z" fill="black"/>
<path id="Vector_3" d="M543.047 413.001C516.135 413.001 494.319 391.185 494.319 364.274C494.319 337.362 516.135 315.546 543.047 315.546C569.958 315.546 591.774 337.362 591.774 364.274C591.774 391.185 569.958 413.001 543.047 413.001Z" fill="#DCE0ED"/>
<path id="Vector_4" d="M543.047 393.51C526.9 393.51 513.81 380.42 513.81 364.274C513.81 348.127 526.9 335.037 543.047 335.037C559.193 335.037 572.283 348.127 572.283 364.274C572.283 380.42 559.193 393.51 543.047 393.51Z" fill="#65617D"/>
<g id="rims">
<line id="Line 6" x1="455" y1="365" x2="498" y2="365" stroke="#DCE0ED" stroke-width="2"/>
<line id="Line 7" x1="588" y1="365" x2="631" y2="365" stroke="#DCE0ED" stroke-width="2"/>
<line id="Line 8" x1="542" y1="409" x2="542" y2="452" stroke="#DCE0ED" stroke-width="2"/>
<line id="Line 9" x1="542" y1="273" x2="542" y2="316" stroke="#DCE0ED" stroke-width="2"/>
</g>
</g>
<g id="s5frontwheel">
<path id="Vector_5" d="M930.622 364.274C930.621 387.302 939.514 409.441 955.443 426.07C971.373 442.7 993.109 452.536 1016.12 453.525C1039.12 454.514 1061.62 446.58 1078.92 431.379C1096.22 416.177 1106.98 394.883 1108.95 371.94C1109.08 370.489 1109.18 369.038 1109.22 367.565V367.49C1109.27 366.418 1109.29 365.346 1109.29 364.274C1109.28 340.586 1099.87 317.871 1083.11 301.125C1066.36 284.378 1043.64 274.97 1019.96 274.97C996.268 274.97 973.55 284.378 956.798 301.125C940.046 317.871 930.63 340.586 930.622 364.274V364.274Z" fill="#65617D"/>
<path id="Vector_6" opacity="0.2" d="M930.622 364.274C930.621 387.302 939.514 409.441 955.443 426.07C971.373 442.7 993.109 452.536 1016.12 453.525C1039.12 454.514 1061.62 446.58 1078.92 431.379C1096.22 416.177 1106.98 394.883 1108.95 371.94C1109.08 370.489 1109.18 369.038 1109.22 367.565V367.49C1109.27 366.418 1109.29 365.346 1109.29 364.274C1109.28 340.586 1099.87 317.871 1083.11 301.125C1066.36 284.378 1043.64 274.97 1019.96 274.97C996.268 274.97 973.55 284.378 956.798 301.125C940.046 317.871 930.63 340.586 930.622 364.274V364.274Z" fill="black"/>
<path id="Vector_7" d="M1019.96 413.001C993.047 413.001 971.231 391.185 971.231 364.274C971.231 337.362 993.047 315.546 1019.96 315.546C1046.87 315.546 1068.69 337.362 1068.69 364.274C1068.69 391.185 1046.87 413.001 1019.96 413.001Z" fill="#DCE0ED"/>
<path id="Vector_8" d="M1019.96 393.51C1003.81 393.51 990.722 380.42 990.722 364.274C990.722 348.127 1003.81 335.037 1019.96 335.037C1036.11 335.037 1049.19 348.127 1049.19 364.274C1049.19 380.42 1036.11 393.51 1019.96 393.51Z" fill="#65617D"/>
<g id="rims_2">
<line id="Line 6_2" x1="934" y1="367" x2="977" y2="367" stroke="#DCE0ED" stroke-width="2"/>
<line id="Line 7_2" x1="1067" y1="367" x2="1110" y2="367" stroke="#DCE0ED" stroke-width="2"/>
<line id="Line 8_2" x1="1021" y1="411" x2="1021" y2="454" stroke="#DCE0ED" stroke-width="2"/>
<line id="Line 9_2" x1="1021" y1="275" x2="1021" y2="318" stroke="#DCE0ED" stroke-width="2"/>
</g>
</g>
<path id="Vector_9" d="M425.847 347.534L455.654 346.238L482.87 295.696L578.77 287.92L625.425 348.83L622.833 365.678L629.313 381.229L933.862 383.821V376.045H936.454L939.046 364.382H915.719L932.566 346.238L992.18 295.696C992.18 295.696 1094.56 298.288 1095.86 295.696C1097.15 293.104 1090.02 266.537 1090.02 266.537L1045.96 253.578L895.631 241.914C862.585 189.428 832.778 164.805 832.778 164.805H446.583L428.439 258.113V258.334L425.847 347.534Z" fill="#DAF297"/>
<path id="Vector_10" d="M640.976 354.014C640.976 354.014 602.097 281.44 572.29 281.44H499.717C499.717 281.44 481.573 281.44 473.798 295.696L443.991 354.014H467.318C467.318 354.014 486.757 299.584 508.789 298.288C530.82 296.992 568.403 298.288 568.403 298.288C568.403 298.288 581.362 298.288 589.138 313.839C596.914 329.391 623.204 363.266 623.204 363.266C623.204 363.266 651.344 372.157 640.976 354.014Z" fill="#33323D"/>
<path id="Vector_11" d="M409 342.351H457.748L458.246 381.229L409 369.566V342.351Z" fill="#33323D"/>
<path id="Vector_12" d="M1114 319.023C1114 319.023 1111.41 299.584 1093.26 291.808L974.037 285.328C974.037 285.328 954.597 286.624 944.23 311.247L910.535 361.79V369.565H948.118C948.118 369.565 966.261 300.88 1018.1 303.472H1080.31C1080.31 303.472 1094.56 303.472 1099.74 326.799L1114 319.023Z" fill="#33323D"/>
<path id="Vector_13" d="M834.074 172.58H436.215C436.215 168.799 437.717 165.173 440.39 162.5C443.064 159.827 446.69 158.325 450.471 158.325H819.818C821.69 158.325 823.544 158.693 825.273 159.41C827.003 160.126 828.574 161.176 829.898 162.5C831.222 163.824 832.272 165.395 832.988 167.125C833.705 168.854 834.074 170.708 834.074 172.58Z" fill="#636780"/>
<path id="Vector_14" opacity="0.3" d="M748.811 249.042H858.907C860.147 249.042 861.367 248.732 862.457 248.14C863.547 247.549 864.472 246.694 865.148 245.654C865.824 244.614 866.229 243.422 866.327 242.186C866.425 240.949 866.212 239.708 865.709 238.575L848.287 199.377C845.599 193.33 841.215 188.192 835.666 184.585C830.117 180.979 823.642 179.06 817.024 179.06H750.132C748.902 179.06 747.684 179.302 746.548 179.773C745.411 180.244 744.378 180.934 743.508 181.804C742.639 182.674 741.949 183.706 741.478 184.843C741.007 185.979 740.765 187.197 740.765 188.428V240.995C740.765 242.052 740.973 243.098 741.377 244.075C741.782 245.051 742.374 245.938 743.121 246.685C743.869 247.432 744.756 248.025 745.732 248.429C746.708 248.833 747.754 249.042 748.811 249.042Z" fill="#6C63FF"/>
<path id="Vector_15" opacity="0.3" d="M610.229 179.06H706.714C709.774 179.06 712.254 181.54 712.254 184.599V243.502C712.254 246.562 709.774 249.042 706.714 249.042H610.229C607.169 249.042 604.689 246.562 604.689 243.502V184.599C604.689 181.54 607.169 179.06 610.229 179.06Z" fill="#6C63FF"/>
<path id="Vector_16" d="M428.439 258.113V258.334L595.618 260.705L599.972 164.805H446.583L428.439 258.113Z" fill="#656380"/>
<path id="Vector_17" opacity="0.3" d="M463.786 179.06H575.823C578.882 179.06 581.362 181.54 581.362 184.599V243.502C581.362 246.562 578.882 249.042 575.823 249.042H463.786C460.726 249.042 458.246 246.562 458.246 243.502V184.599C458.246 181.54 460.726 179.06 463.786 179.06Z" fill="#F2F2F2"/>
<path id="Vector_18" d="M734.749 273.665H772.7C773.672 273.665 774.46 274.453 774.46 275.425V279.681C774.46 280.653 773.672 281.441 772.7 281.441H734.749C733.777 281.441 732.989 280.653 732.989 279.681V275.425C732.989 274.453 733.777 273.665 734.749 273.665Z" fill="#33323D"/>
<path id="Vector_19" d="M615.521 273.665H653.472C654.444 273.665 655.232 274.453 655.232 275.425V279.681C655.232 280.653 654.444 281.441 653.472 281.441H615.521C614.549 281.441 613.761 280.653 613.761 279.681V275.425C613.761 274.453 614.549 273.665 615.521 273.665Z" fill="#33323D"/>
</g>
</svg>
