<svg width="139" height="29" viewBox="0 0 139 29" fill="none" xmlns="http://www.w3.org/2000/svg">
<path d="M15.16 28L9 17.12H6.36V28H0.76V0.0799994H11.24C13.4 0.0799994 15.24 0.466666 16.76 1.24C18.28 1.98667 19.4133 3.01333 20.16 4.32C20.9333 5.6 21.32 7.04 21.32 8.64C21.32 10.48 20.7867 12.1467 19.72 13.64C18.6533 15.1067 17.0667 16.12 14.96 16.68L21.64 28H15.16ZM6.36 12.92H11.04C12.56 12.92 13.6933 12.56 14.44 11.84C15.1867 11.0933 15.56 10.0667 15.56 8.76C15.56 7.48 15.1867 6.49333 14.44 5.8C13.6933 5.08 12.56 4.72 11.04 4.72H6.36V12.92ZM46.985 16.44C46.985 17.24 46.9317 17.96 46.825 18.6H30.625C30.7583 20.2 31.3183 21.4533 32.305 22.36C33.2917 23.2667 34.505 23.72 35.945 23.72C38.025 23.72 39.505 22.8267 40.385 21.04H46.425C45.785 23.1733 44.5583 24.9333 42.745 26.32C40.9317 27.68 38.705 28.36 36.065 28.36C33.9317 28.36 32.0117 27.8933 30.305 26.96C28.625 26 27.305 24.6533 26.345 22.92C25.4117 21.1867 24.945 19.1867 24.945 16.92C24.945 14.6267 25.4117 12.6133 26.345 10.88C27.2783 9.14667 28.585 7.81333 30.265 6.88C31.945 5.94667 33.8783 5.48 36.065 5.48C38.1717 5.48 40.0517 5.93333 41.705 6.84C43.385 7.74667 44.6783 9.04 45.585 10.72C46.5183 12.3733 46.985 14.28 46.985 16.44ZM41.185 14.84C41.1583 13.4 40.6383 12.2533 39.625 11.4C38.6117 10.52 37.3717 10.08 35.905 10.08C34.5183 10.08 33.345 10.5067 32.385 11.36C31.4517 12.1867 30.8783 13.3467 30.665 14.84H41.185ZM63.3525 5.52C65.9925 5.52 68.1258 6.36 69.7525 8.04C71.3792 9.69333 72.1925 12.0133 72.1925 15V28H66.5925V15.76C66.5925 14 66.1525 12.6533 65.2725 11.72C64.3925 10.76 63.1925 10.28 61.6725 10.28C60.1258 10.28 58.8992 10.76 57.9925 11.72C57.1125 12.6533 56.6725 14 56.6725 15.76V28H51.0725V5.84H56.6725V8.6C57.4192 7.64 58.3658 6.89333 59.5125 6.36C60.6858 5.8 61.9658 5.52 63.3525 5.52ZM84.0378 10.44V21.16C84.0378 21.9067 84.2111 22.4533 84.5578 22.8C84.9311 23.12 85.5445 23.28 86.3978 23.28H88.9978V28H85.4778C80.7578 28 78.3978 25.7067 78.3978 21.12V10.44H75.7578V5.84H78.3978V0.359998H84.0378V5.84H88.9978V10.44H84.0378Z" fill="black"/>
<path d="M92.1856 17.08C92.1856 14.8133 92.639 12.84 93.5456 11.16C94.4523 9.45333 95.7056 8.14667 97.3056 7.24C98.9056 6.30667 100.732 5.84 102.786 5.84C105.479 5.84 107.692 6.50667 109.426 7.84C111.186 9.17333 112.319 10.9867 112.826 13.28H109.826C109.452 11.7067 108.639 10.48 107.386 9.6C106.159 8.69333 104.626 8.24 102.786 8.24C101.319 8.24 99.999 8.57333 98.8256 9.24C97.6523 9.90667 96.719 10.9067 96.0256 12.24C95.359 13.5467 95.0256 15.16 95.0256 17.08C95.0256 19 95.359 20.6267 96.0256 21.96C96.719 23.2933 97.6523 24.2933 98.8256 24.96C99.999 25.6267 101.319 25.96 102.786 25.96C104.626 25.96 106.159 25.52 107.386 24.64C108.639 23.7333 109.452 22.48 109.826 20.88H112.826C112.319 23.12 111.186 24.92 109.426 26.28C107.666 27.64 105.452 28.32 102.786 28.32C100.732 28.32 98.9056 27.8667 97.3056 26.96C95.7056 26.0267 94.4523 24.72 93.5456 23.04C92.639 21.3333 92.1856 19.3467 92.1856 17.08ZM127.557 28.32C125.504 28.32 123.65 27.8667 121.997 26.96C120.37 26.0267 119.077 24.72 118.117 23.04C117.184 21.3333 116.717 19.3467 116.717 17.08C116.717 14.8133 117.197 12.84 118.157 11.16C119.117 9.45333 120.424 8.14667 122.077 7.24C123.73 6.30667 125.584 5.84 127.637 5.84C129.69 5.84 131.544 6.30667 133.197 7.24C134.877 8.14667 136.184 9.45333 137.117 11.16C138.077 12.84 138.557 14.8133 138.557 17.08C138.557 19.32 138.077 21.2933 137.117 23C136.157 24.7067 134.837 26.0267 133.157 26.96C131.477 27.8667 129.61 28.32 127.557 28.32ZM127.557 25.88C128.997 25.88 130.33 25.56 131.557 24.92C132.784 24.2533 133.77 23.2667 134.517 21.96C135.29 20.6267 135.677 19 135.677 17.08C135.677 15.16 135.304 13.5467 134.557 12.24C133.81 10.9067 132.824 9.92 131.597 9.28C130.37 8.61333 129.037 8.28 127.597 8.28C126.157 8.28 124.824 8.61333 123.597 9.28C122.37 9.92 121.384 10.9067 120.637 12.24C119.917 13.5467 119.557 15.16 119.557 17.08C119.557 19 119.917 20.6267 120.637 21.96C121.384 23.2667 122.357 24.2533 123.557 24.92C124.784 25.56 126.117 25.88 127.557 25.88Z" fill="#FF9100"/>
</svg>
